# xmcd
#
# Track frame offsets:
# 150
# 10092
# 25412
# 40852
# 55000
# 68792
# 85150
# 104535
# 119025
# 136220
#
# Disc length: 2002 seconds
#
#
# Revision: 0
# Processed by: cddbd v1.5.1PL2 Copyright (c) Steve Scherf et al.
# Submitted via: FreeRIP 2.944 
#
DISCID=8207d00a
DTITLE=Edu Kettunen - Kaupparatsun koira
DYEAR=1994
DGENRE=Blues
TTITLE0=Nyt se myy
TTITLE1=Timpan korjaamo
TTITLE2=Taivaan sivutiet
TTITLE3=Kraak kraak
TTITLE4=Naula arkussa
TTITLE5=Kaupparatsun koira
TTITLE6=Kiiltomato
TTITLE7=Kampaa hiuksesi Onni
TTITLE8=Mailien p‰‰st‰
TTITLE9=Mul on kuuma
EXTD=
EXTT0=
EXTT1=
EXTT2=
EXTT3=
EXTT4=
EXTT5=
EXTT6=
EXTT7=
EXTT8=
EXTT9=
PLAYORDER=
